<svg xmlns:xlink="http://www.w3.org/1999/xlink" version="1.1" id="Livello_1" xmlns="http://www.w3.org/2000/svg" x="0"
     y="0" viewBox="0 0 313.6 67" fill="white" style="enable-background:new 0 0 313.6 67" xml:space="preserve"><style>.st0,.st1{fill:#fff}.st1{clip-path:url(#SVGID_2_)}</style>
    <path class="st0"
          d="M82 0h11.8v67H82zM106.9 0v10.9h21.3V67h11.9V10.9h21.2V0zM217.6 0v27.9h-32V0h-11.8v67h11.8V38.8h32V67h11.8V0z"/>
    <defs><path id="SVGID_1_" d="M0 0h313.6v67H0z"/></defs>
    <clipPath id="SVGID_2_"><use xlink:href="#SVGID_1_" style="overflow:visible"/></clipPath>
    <path class="st1" clip-path="url(#SVGID_2_)"
          d="M243.6 33.7v-.2c0-18.2 14.5-33.5 35.1-33.5 20.5 0 34.9 15.1 34.9 33.3v.2c0 18.2-14.5 33.5-35.1 33.5-20.5 0-34.9-15.1-34.9-33.3m57.7 0v-.2c0-12.6-9.5-23-22.7-23-13.3 0-22.6 10.3-22.6 22.9v.2c0 12.6 9.5 23 22.8 23 13.2-.1 22.5-10.3 22.5-22.9"/>
    <path style="clip-path:url(#SVGID_2_);fill:#ef233c"
          d="m61.3 50.6-8.6-16.4-.8-1.7-.8-1.6-.9-1.6-.8-1.7-.9-1.6-.8-1.6-.9-1.6-.4-.8-.4-.8-.4-.8-.4-.8-.4-.8-.5-.8-.4-.8-.4-.8-.4-.8-.4-.8-.4-.7-.2-.4-.2-.4-.2-.4-.2.4-.2.4-.3.4-.2.4-.2.4-.2.4-.2.4-.2.4-.2.4-.2.4-.2.4-.2.4-.2.4-.2.4-.1.2-.2.3-.1.2-.1.3-.1.2-.2.3-.1.2-.1.2-.2.3-.1.2-.1.3-.1.2-.2.3-.1.2-.1.3-.1.2-.2.3-.1.2-.1.3-.1.2-.2.3-.1.2-.1.2-.1.3-.2.2-.1.2-.1.2-.1.3-.1.2-.1.2-.1.2.1.3.1.2.1.2.1.2.1.3.1.2.2.2.1.2.1.3.1.2.2.3.1.2.1.3.1.2.2.3.1.2.1.2.1.3.2.2.1.3.1.2.1.3.2.2.1.3.1.2.2.3.1.2.1.3.1.2.2.3.1.2.2.4.2.4.2.4.2.4.2.4.2.4.2.4.2.4.2.4.2.4.2.4.3.4.2.4.2.4.2.4.2.4.2.4.4.8.4.8.4.8.4.8.4.8.5.8.4.8.4.8.4.8.4.8.4.8.9 1.7.8 1.6.9 1.6.8 1.7.9 1.6.8 1.7.8 1.6 3.4 6.5h13.7z"/>
    <path class="st1" d="m35 0 6.7 12.9-6.7 13L13.9 67H0z"/></svg>