<svg xmlns="http://www.w3.org/2000/svg" viewBox="0 0 335.38 56.34"><defs><style></style></defs><g id="26a73454-d4ef-4454-9939-102c1d5a39ee" data-name="Livello 2"><g id="742d5870-7d42-4c31-88c0-35d9dd0e5ba6" data-name="Livello 1"><path class="7753858c-1428-48a2-a1d5-8b62236d87a4" d="M0 55.69v-41h10.79v7.42H11a11.88 11.88 0 0 1 4.44-6 12.27 12.27 0 0 1 7.27-2.22 12.16 12.16 0 0 1 7.42 2.2 10.75 10.75 0 0 1 4 6.22h.23a12.05 12.05 0 0 1 4.8-6.14 14 14 0 0 1 7.94-2.28 13 13 0 0 1 9.73 3.79 13.69 13.69 0 0 1 3.69 10v28H49.38V30.49A7.83 7.83 0 0 0 47.66 25a6.38 6.38 0 0 0-5-1.89 6.6 6.6 0 0 0-5.11 2.1 7.88 7.88 0 0 0-1.93 5.55v24.9H24.9V30.14A7.18 7.18 0 0 0 23.14 25a6.37 6.37 0 0 0-4.86-1.86 6.61 6.61 0 0 0-5.15 2.18 8.07 8.07 0 0 0-2 5.62v24.75ZM79.79 56.34A14.21 14.21 0 0 1 70 52.86a11.45 11.45 0 0 1-3.9-9 10.44 10.44 0 0 1 4.13-8.76Q74.32 32 82 31.52l10.33-.61v-2.72a5.56 5.56 0 0 0-1.85-4.44 7.42 7.42 0 0 0-5-1.61 8.4 8.4 0 0 0-5 1.38 5.62 5.62 0 0 0-2.35 3.71H67.9a12.49 12.49 0 0 1 5.16-9.73q4.86-3.69 12.89-3.69 7.88 0 12.62 3.75a12 12 0 0 1 4.74 9.95v28.18H92.53v-6.27h-.23a12.06 12.06 0 0 1-5.13 5.07 15.33 15.33 0 0 1-7.38 1.85Zm3.67-8.07a9.47 9.47 0 0 0 6.29-2.16 6.81 6.81 0 0 0 2.58-5.45v-3l-8.64.54a8.74 8.74 0 0 0-4.84 1.57 4.26 4.26 0 0 0-1.7 3.52 4.36 4.36 0 0 0 1.72 3.63 7.27 7.27 0 0 0 4.59 1.35ZM125.73 56.34a14.74 14.74 0 0 1-12.2-5.7Q109 44.94 109 35.11t4.53-15.42A14.88 14.88 0 0 1 125.81 14a14 14 0 0 1 7.67 2.1 12.45 12.45 0 0 1 4.84 5.58h.23V.5h11.17v55.2h-11v-7h-.19a12.28 12.28 0 0 1-4.93 5.58 14.61 14.61 0 0 1-7.87 2.06ZM129.52 23a7.81 7.81 0 0 0-6.64 3.29q-2.43 3.29-2.43 8.91t2.43 8.91a8.38 8.38 0 0 0 13.27 0q2.47-3.27 2.47-8.89t-2.47-8.89a7.86 7.86 0 0 0-6.63-3.33ZM160.16 55.69V23.1h-5.58v-8.22h5.58v-3.1q0-6.12 3.16-9T173.66 0a28.57 28.57 0 0 1 5.7.5v7.38a16.73 16.73 0 0 0-3-.23q-5.28 0-5.28 4.51v2.72h8.15v8.22h-7.88v32.59ZM195.12 56.34a14.21 14.21 0 0 1-9.83-3.48 11.45 11.45 0 0 1-3.9-9 10.44 10.44 0 0 1 4.13-8.76q4.13-3.17 11.82-3.63l10.33-.61v-2.67a5.56 5.56 0 0 0-1.85-4.44 7.42 7.42 0 0 0-5-1.61 8.4 8.4 0 0 0-5 1.38 5.62 5.62 0 0 0-2.35 3.71h-10.25a12.49 12.49 0 0 1 5.16-9.73q4.86-3.69 12.89-3.69 7.88 0 12.62 3.75a12 12 0 0 1 4.74 9.95v28.18h-10.77v-6.27h-.23a12.06 12.06 0 0 1-5.13 5.07 15.33 15.33 0 0 1-7.38 1.85Zm3.67-8.07a9.47 9.47 0 0 0 6.29-2.16 6.81 6.81 0 0 0 2.58-5.45v-3l-8.64.54a8.74 8.74 0 0 0-4.84 1.57 4.26 4.26 0 0 0-1.7 3.52 4.36 4.36 0 0 0 1.72 3.63 7.27 7.27 0 0 0 4.59 1.35ZM225.83 55.69v-41h10.79v7.38h.23a11.3 11.3 0 0 1 3.6-6A9.41 9.41 0 0 1 246.6 14a11.14 11.14 0 0 1 3.17.42v9.83a10.73 10.73 0 0 0-4.05-.65 8.45 8.45 0 0 0-6.42 2.4 9.37 9.37 0 0 0-2.3 6.78v22.91ZM254.33 55.69v-41h10.79v7.42h.23a11.88 11.88 0 0 1 4.44-6 13.31 13.31 0 0 1 14.69 0 10.75 10.75 0 0 1 4 6.22h.23a12.05 12.05 0 0 1 4.8-6.14 14 14 0 0 1 7.94-2.28 13 13 0 0 1 9.73 3.79 13.69 13.69 0 0 1 3.69 10v28h-11.16V30.49A7.83 7.83 0 0 0 302 25a6.38 6.38 0 0 0-5-1.89 6.6 6.6 0 0 0-5.11 2.1 7.88 7.88 0 0 0-1.89 5.58v24.9h-10.77V30.14a7.18 7.18 0 0 0-1.76-5.14 6.37 6.37 0 0 0-4.86-1.86 6.61 6.61 0 0 0-5.15 2.18 8.07 8.07 0 0 0-2 5.62v24.75ZM333.59 27a6.16 6.16 0 0 1-10.52-4.36 6.16 6.16 0 1 1 12.32 0 5.94 5.94 0 0 1-1.8 4.36Zm0 27.35a6.19 6.19 0 1 1 1.8-4.36 5.94 5.94 0 0 1-1.8 4.36Z"/></g></g></svg>