<svg xmlns="http://www.w3.org/2000/svg" viewBox="0 0 37500 14500"
     style="clip-rule:evenodd;fill-rule:evenodd;stroke-linejoin:round;stroke-miterlimit:2">
    <g transform="translate(0 177.306) scale(149.60702)">
        <path d="M197.653 95.582a.814.814 0 0 0 .569.232.67.667 0 0 0 .53-.232.755.752 0 0 0 .243-.543v-3.491a4.263 4.245 0 0 0 2.725.93c1.18 0 2.197-.387 3.05-1.202a3.883 3.866 0 0 0 1.262-2.91c0-1.124-.407-2.093-1.262-2.908-.853-.815-1.87-1.203-3.05-1.203-1.18 0-2.197.388-3.05 1.203-.855.815-1.262 1.784-1.262 2.909v6.672c0 .233.082.389.245.543zm-78.661-1.047c.895.853 1.993 1.28 3.255 1.28a4.55 4.53 0 0 0 3.211-1.28c.652-.62.977-1.397.977-2.25v-3.918c0-1.125-.407-2.094-1.26-2.91-.855-.814-1.872-1.202-3.052-1.202-1.178 0-2.195.388-3.05 1.203-.853.815-1.26 1.784-1.26 2.909 0 1.125.407 2.096 1.26 2.909a4.242 4.223 0 0 0 3.05 1.203c1.059 0 1.954-.31 2.725-.931v.737c0 .388-.203.814-.528 1.203-.57.582-1.302.853-2.115.853-.813 0-1.545-.31-2.115-.853a2.717 2.705 0 0 1-.528-.66.817.813 0 0 0-.164-.233.842.838 0 0 0-1.098 0 .76.757 0 0 0-.243.543c0 .156.04.272.121.388.204.35.489.699.814 1.009zm99.161-2.328a.815.811 0 0 0 .569.234c.203 0 .366-.078.53-.194a.76.757 0 0 0 .243-.543v-3.337c0-1.125-.407-2.094-1.26-2.91-.855-.814-1.872-1.202-3.052-1.202-1.178 0-2.236.388-3.05 1.203-.855.815-1.261 1.784-1.261 2.909 0 1.125.406 2.096 1.261 2.909.854.815 1.872 1.203 3.05 1.203 1.017 0 1.954-.31 2.725-.931v.116c0 .232.082.388.245.543zm-133.776.234h-1.179a.822.818 0 0 1-.57-.234.695.692 0 0 1-.243-.543V81.618c0-.194.082-.388.243-.544a.758.755 0 0 1 .57-.233.82.82 0 0 1 .569.233.695.692 0 0 1 .245.544v9.271h.365c.205 0 .408.076.57.232a.692.689 0 0 1 .245.543.75.747 0 0 1-.245.543.817.813 0 0 1-.57.234zm124.666 0h-1.18a.822.818 0 0 1-.57-.234.695.692 0 0 1-.243-.543V81.618c0-.194.082-.388.243-.544a.76.757 0 0 1 .57-.233c.204 0 .407.078.57.233a.698.695 0 0 1 .244.544v9.271h.366c.204 0 .407.076.569.232a.692.689 0 0 1 .245.543.75.747 0 0 1-.245.543.75.747 0 0 1-.569.234zm-80.738 0a.822.818 0 0 1-.57-.234.695.692 0 0 1-.243-.543v-6.673a.75.75 0 0 1 .243-.542c.285-.27.815-.27 1.14 0a.692.689 0 0 1 .243.542v.156a4.263 4.245 0 0 1 2.725-.93 4.7 4.7 0 0 1 1.669.31.725.725 0 0 1 .285.194.75.75 0 0 1 .243.543.755.752 0 0 1-.243.542.822.818 0 0 1-.57.234c-.122 0-.244-.04-.367-.078a2.99 2.977 0 0 0-1.057-.194c-.731 0-1.383.272-1.911.777-.529.503-.814 1.123-.814 1.822v3.337a.755.752 0 0 1-.773.737zm-19.645 0c-1.302 0-2.4-.505-3.295-1.476a.748.745 0 0 1 .082-1.007.753.75 0 0 1 .57-.234c.203 0 .406.078.528.194l.203.194c.529.505 1.18.777 1.912.777s1.342-.234 1.79-.66c.082-.077.122-.195.122-.349 0-.116-.082-.194-.204-.272l-3.58-1.125c-.486-.154-.813-.349-1.016-.543a1.818 1.81 0 0 1-.569-1.319c0-.504.204-.97.61-1.357.732-.737 1.709-1.086 2.887-1.086 1.262 0 2.4.503 3.295 1.474.122.116.163.27.163.465a.757.753 0 0 1-.245.544.753.75 0 0 1-.568.232.8.797 0 0 1-.53-.194l-.203-.194a2.7 2.688 0 0 0-1.912-.775c-.732 0-1.342.232-1.788.659-.082.078-.124.194-.124.348 0 .118.082.194.204.272l3.58 1.125c.488.155.813.349 1.016.543.367.35.57.815.57 1.32 0 .504-.203.968-.61 1.357-.733.737-1.708 1.087-2.888 1.087zm63.533 0c-2.075 0-3.131-1.01-3.131-2.987v-3.686h-.367a.827.823 0 0 1-.57-.232.698.695 0 0 1-.243-.545c0-.192.081-.386.243-.542a.76.757 0 0 1 .57-.232h.367v-2.6c0-.193.081-.387.243-.543a.758.755 0 0 1 .57-.233c.203 0 .407.078.568.233a.695.692 0 0 1 .245.544v2.599h.977c.203 0 .407.077.568.232a.755.752 0 0 1 .245.542.757.753 0 0 1-.245.545.753.75 0 0 1-.568.232h-.977v3.686c0 1.009.489 1.473 1.545 1.473.204 0 .407.078.57.233a.698.695 0 0 1 .244.544.76.757 0 0 1-.244.543 1.25 1.245 0 0 1-.61.194zm70.727 0c-2.075 0-3.132-1.01-3.132-2.987v-3.686h-.366a.827.823 0 0 1-.57-.232.698.695 0 0 1-.244-.545c0-.192.082-.386.244-.542a.76.757 0 0 1 .57-.232h.366v-2.6c0-.193.082-.387.244-.543a.758.755 0 0 1 .57-.233.82.82 0 0 1 .568.233.695.692 0 0 1 .245.544v2.599h.977c.203 0 .406.077.568.232a.693.69 0 0 1 .245.542.757.753 0 0 1-.245.545.753.75 0 0 1-.568.232h-.977v3.686c0 1.009.488 1.473 1.545 1.473.203 0 .407.078.57.233a.698.695 0 0 1 .243.544.76.757 0 0 1-.243.543c-.245.116-.407.194-.61.194zm-143.41 0c-2.075 0-3.132-1.01-3.132-2.987v-3.686h-.366a.82.816 0 0 1-.569-.232.695.692 0 0 1-.245-.545.75.75 0 0 1 .245-.542.753.75 0 0 1 .569-.232h.366v-2.6c0-.193.082-.387.244-.543a.76.757 0 0 1 .57-.233c.203 0 .406.078.57.233a.698.695 0 0 1 .243.544v2.599h.977c.203 0 .406.077.568.232a.755.752 0 0 1 .245.542.757.753 0 0 1-.245.545.753.75 0 0 1-.568.232h-.977v3.686c0 1.009.488 1.473 1.545 1.473.203 0 .407.078.57.233a.693.69 0 0 1 .243.544.753.75 0 0 1-.243.543 1.25 1.245 0 0 1-.61.194zm81.752 0a.822.818 0 0 1-.57-.234.695.692 0 0 1-.244-.543v-3.608c0-.62-.245-1.201-.691-1.63a2.357 2.346 0 0 0-1.709-.658c-.65 0-1.26.232-1.708.659a2.158 2.149 0 0 0-.692 1.63v3.607a.755.752 0 0 1-.243.543.753.75 0 0 1-.57.234.815.811 0 0 1-.568-.234.692.689 0 0 1-.245-.543V81.618c0-.194.081-.388.245-.544a.753.75 0 0 1 .568-.233c.203 0 .407.078.57.233a.698.695 0 0 1 .243.544v3.373a4.042 4.024 0 0 1 2.44-.774c1.099 0 2.075.388 2.849 1.125.771.736 1.178 1.667 1.178 2.714v3.608a.748.745 0 0 1-.243.543.998.994 0 0 1-.61.234zm49.58-1.203a4.242 4.223 0 0 0 3.05 1.203c1.098 0 2.035-.31 2.806-.971a.75.747 0 0 0 .245-.543.692.689 0 0 0-.245-.542.883.88 0 0 0-1.056-.04c-.489.428-1.059.62-1.75.62a2.71 2.71 0 0 1-1.912-.775 2.662 2.65 0 0 1-.692-1.086h6.102a.753.75 0 0 0 .57-.233.755.752 0 0 0 .243-.542c0-1.126-.406-2.095-1.26-2.91-.855-.814-1.871-1.202-3.051-1.202-1.179 0-2.195.388-3.05 1.203-.854.814-1.26 1.783-1.26 2.909 0 1.125.406 2.094 1.26 2.909zm-85.089 0c.855.814 1.872 1.203 3.052 1.203 1.057 0 1.992-.31 2.847-.971a.905.901 0 0 0 .203-.543.692.689 0 0 0-.245-.542.883.88 0 0 0-1.057-.04c-.488.428-1.056.62-1.748.62-.733 0-1.383-.27-1.912-.775a2.627 2.615 0 0 1-.691-1.086h6.1a.75.747 0 0 0 .57-.233.748.745 0 0 0 .243-.542c0-1.126-.407-2.095-1.26-2.91a4.242 4.223 0 0 0-3.05-1.202c-1.18 0-2.238.388-3.052 1.203-.853.814-1.26 1.783-1.26 2.909 0 1.125.407 2.094 1.26 2.909zm38.6 0c.854.814 1.872 1.203 3.05 1.203 1.059 0 2.034-.31 2.807-.971a.75.747 0 0 0 .245-.543.692.689 0 0 0-.245-.542.883.88 0 0 0-1.057-.04c-.488.428-1.058.62-1.75.62a2.71 2.71 0 0 1-1.911-.775 2.662 2.65 0 0 1-.692-1.086h6.102a.753.75 0 0 0 .57-.233.755.752 0 0 0 .243-.542c0-1.126-.407-2.095-1.26-2.91-.855-.814-1.872-1.202-3.052-1.202-1.178 0-2.196.388-3.05 1.203-.853.814-1.261 1.783-1.261 2.909 0 1.125.408 2.094 1.261 2.909zm-48.278 0c.853.814 1.87 1.203 3.05 1.203 1.098 0 2.033-.31 2.807-.971a.755.752 0 0 0 .243-.543.695.692 0 0 0-.243-.542.887.883 0 0 0-1.059-.04c-.486.428-1.056.62-1.748.62a2.71 2.71 0 0 1-1.912-.775 2.643 2.632 0 0 1-.691-1.086h6.101a.748.745 0 0 0 .569-.233.75.747 0 0 0 .245-.542c0-1.126-.407-2.095-1.262-2.91-.853-.814-1.87-1.202-3.05-1.202-1.18 0-2.197.388-3.05 1.203-.855.814-1.262 1.783-1.262 2.909 0 1.125.407 2.094 1.262 2.909zm-48.605 0c.853.814 1.87 1.203 3.05 1.203a4.483 4.464 0 0 0 2.847-.971.905.901 0 0 0 .203-.543.695.692 0 0 0-.243-.542c-.285-.273-.732-.273-1.059-.04-.488.428-1.056.62-1.748.62a2.71 2.71 0 0 1-1.912-.775 2.643 2.632 0 0 1-.691-1.086h6.101a.748.745 0 0 0 .569-.233.75.747 0 0 0 .245-.542c0-1.126-.407-2.095-1.262-2.91-.853-.814-1.87-1.202-3.05-1.202-1.18 0-2.237.388-3.05 1.203-.855.814-1.262 1.783-1.262 2.909 0 1.125.407 2.094 1.262 2.909zm140.28 1.203a.822.818 0 0 1-.57-.234.695.692 0 0 1-.243-.543v-3.608c0-.62-.244-1.201-.692-1.63a2.357 2.346 0 0 0-1.708-.658c-.65 0-1.26.232-1.709.659a2.158 2.149 0 0 0-.691 1.63v3.607a.755.752 0 0 1-.244.543.893.89 0 0 1-1.138 0 .692.689 0 0 1-.245-.543v-6.673c0-.194.082-.386.245-.542a.84.836 0 0 1 1.097 0 .748.748 0 0 1 .245.542v.04a4.032 4.014 0 0 1 2.44-.776c1.098 0 2.075.388 2.846 1.125.774.737 1.18 1.668 1.18 2.716v3.608a.76.757 0 0 1-.243.543.912.908 0 0 1-.57.194zm-66.377 0a.815.811 0 0 1-.568-.234.692.689 0 0 1-.245-.543v-3.608c0-.62-.243-1.163-.692-1.63a2.353 2.343 0 0 0-1.708-.658c-.69 0-1.22.232-1.707.659a2.158 2.149 0 0 0-.691 1.63v3.607a.75.747 0 0 1-.245.543c-.285.272-.814.272-1.139 0a.69.687 0 0 1-.243-.543v-6.673a.75.747 0 0 1 .243-.542c.285-.27.814-.27 1.139 0a.748.748 0 0 1 .245.542v.04a4.032 4.014 0 0 1 2.44-.776c1.098 0 2.073.388 2.846 1.125.774.737 1.18 1.668 1.18 2.716v3.608a.755.752 0 0 1-.245.543 1.25 1.245 0 0 1-.61.194zm38.435-5.896a2.705 2.693 0 0 1 1.912-.777c.773 0 1.423.272 1.912.777.488.503.773 1.123.773 1.822 0 .698-.245 1.319-.773 1.823a2.703 2.692 0 0 1-1.912.775 2.71 2.71 0 0 1-1.912-.775 2.605 2.594 0 0 1-.773-1.823c0-.699.245-1.32.773-1.822zm13.464 0a2.705 2.693 0 0 1 1.911-.777c.774 0 1.384.272 1.912.777.528.503.813 1.123.813 1.822 0 .698-.285 1.319-.813 1.823a2.703 2.692 0 0 1-1.912.775 2.71 2.71 0 0 1-1.911-.775 2.605 2.594 0 0 1-.774-1.823c0-.699.245-1.32.774-1.822zm-93.019 0a2.702 2.69 0 0 1 1.912-.777c.772 0 1.423.272 1.912.777.568.503.813 1.085.813 1.822 0 .698-.285 1.319-.813 1.823a2.707 2.695 0 0 1-1.912.775c-.733 0-1.383-.27-1.912-.775-.528-.504-.813-1.125-.813-1.823 0-.699.285-1.32.813-1.822zm-27.131 1.047h-5.205a2.48 2.48 0 0 1 .69-1.087 2.707 2.695 0 0 1 1.913-.775c.732 0 1.382.27 1.91.775.327.31.57.698.692 1.087zm48.606 0h-5.206c.123-.389.366-.737.691-1.087a2.703 2.692 0 0 1 1.912-.775c.732 0 1.383.27 1.912.775.325.31.57.698.691 1.087zm48.277 0h-5.207c.124-.389.367-.737.692-1.087a2.703 2.692 0 0 1 1.912-.775c.731 0 1.383.27 1.911.775.325.31.57.698.692 1.087zm46.49 0h-5.207c.122-.389.367-.737.692-1.087a2.703 2.692 0 0 1 1.912-.775c.731 0 1.383.27 1.911.775.325.31.569.698.692 1.087zm-85.087 0h-5.206a2.483 2.473 0 0 1 .691-1.087c.529-.543 1.139-.775 1.912-.775.732 0 1.382.27 1.912.775.325.31.568.698.691 1.087zm-48.116-1.67a.657.654 0 0 1-.447-.194.607.604 0 0 1-.203-.426c0-.077 0-.193.04-.27.446-1.048.446-2.019.04-2.872a1.108 1.104 0 0 1-.08-.348c0-.234.08-.466.283-.622a.832.828 0 0 1 .652-.27c.365 0 .691.193.853.504.325.542.488 1.085.488 1.667 0 .853-.406 1.746-1.138 2.637a.857.853 0 0 1-.488.194z"
              class="slogan" style="fill:#3dd368;fill-opacity:1;stroke-width:1.66305"/>
        <path d="M203.962 66.592c0 .599-.202 1.077-.647 1.477a2.117 2.107 0 0 1-1.495.638c-.565 0-1.09-.199-1.493-.638a2.087 2.078 0 0 1-.647-1.477V41.24c0-.599.202-1.078.647-1.476a2.117 2.107 0 0 1 1.493-.64c.567 0 1.092.2 1.495.64.405.398.647.917.647 1.476v.56c2.101-1.798 4.606-2.675 7.475-2.675 3.233 0 6.021 1.118 8.323 3.393.485.48.93.958 1.293 1.517a23.55 23.55 0 0 1 1.294-1.517c2.303-2.275 5.05-3.393 8.323-3.393 3.232 0 6.02 1.118 8.323 3.393 2.304 2.275 3.435 4.99 3.435 8.224v15.85c0 .599-.203 1.077-.646 1.477a2.122 2.112 0 0 1-1.495.638c-.607 0-1.092-.199-1.495-.638a2.087 2.078 0 0 1-.647-1.477v-15.85c0-2.036-.727-3.793-2.182-5.23-1.455-1.437-3.233-2.156-5.293-2.156s-3.838.719-5.293 2.156c-1.455 1.437-2.182 3.194-2.182 5.23v15.85c0 .599-.202 1.077-.647 1.477a2.117 2.107 0 0 1-1.495.638c-.606 0-1.09-.199-1.495-.638a2.093 2.084 0 0 1-.646-1.477v-15.85c0-2.036-.727-3.793-2.182-5.23-1.455-1.437-3.232-2.156-5.293-2.156-2.06 0-3.839.719-5.294 2.156-1.453 1.437-2.181 3.194-2.181 5.23zm-22.34-27.467c4.121 0 7.676 1.437 10.586 4.31 2.95 2.915 4.404 6.39 4.364 10.46 0 4.073-1.455 7.586-4.364 10.461-2.91 2.875-6.465 4.312-10.586 4.312-4.12 0-7.677-1.437-10.585-4.312-2.91-2.875-4.365-6.388-4.365-10.46 0-4.071 1.455-7.586 4.365-10.46 2.908-2.874 6.465-4.311 10.585-4.311zm-21.74-12.098a1.883 1.875 0 0 0-.647 1.477v15.051l-.122-.12c-2.95-2.873-6.465-4.31-10.586-4.31-4.12 0-7.677 1.437-10.585 4.31-2.91 2.875-4.364 6.39-4.364 10.46 0 4.073 1.454 7.587 4.364 10.461 2.908 2.875 6.465 4.312 10.585 4.312 4.121 0 7.678-1.437 10.586-4.312 2.91-2.874 4.364-6.388 4.364-10.46V28.503c0-.557-.202-1.077-.605-1.477a1.917 1.908 0 0 0-1.495-.639c-.567 0-1.092.241-1.495.64zm-3.759 19.404c2.06 2.036 3.112 4.55 3.112 7.464 0 2.916-1.052 5.43-3.112 7.466-2.06 2.036-4.606 3.075-7.555 3.075-2.95 0-5.455-.999-7.556-3.075-2.06-2.036-3.112-4.55-3.112-7.466 0-2.914 1.01-5.388 3.112-7.464 2.06-2.036 4.606-3.075 7.556-3.075 2.949 0 5.454 1 7.555 3.075zm25.54 18.005c2.949 0 5.454-.999 7.555-3.075 2.06-2.036 3.112-4.55 3.112-7.466 0-2.914-1.01-5.388-3.112-7.464-2.06-2.036-4.606-3.075-7.555-3.075-2.95 0-5.455 1-7.556 3.075-2.06 2.035-3.11 4.55-3.11 7.464 0 2.916 1.01 5.39 3.11 7.466 2.061 2.036 4.606 3.075 7.556 3.075zM55.758 78.17l-2.221 14.69c-.244 1.557.97 2.954 2.586 2.954h19.152c1.575 0 2.787-1.397 2.585-2.953L75.638 78.17a2.317 2.307 0 0 1 2.304-2.636h29.131c.162 0 .364 0 .525-.04.445.04.849.04 1.294.04 14.465 0 25.696-13.494 21.616-28.384-2.708-9.902-12.243-16.449-22.586-15.97-.809-7.745-7.354-13.814-15.395-13.814a15.38 15.313 0 0 0-9.495 3.274A33.658 33.512 0 0 0 51.88 0C33.86 0 19.152 13.933 18.223 31.5 7.838 33.456 0 42.478 0 53.298c0 12.215 9.98 22.117 22.303 22.197h31.152c1.415.04 2.507 1.277 2.303 2.675zM35.112 68.069a2.122 2.112 0 0 1-1.495.638c-7.112 0-10.709-3.513-10.709-10.578V43.356h-2.141c-.605 0-1.09-.199-1.495-.639a2.092 2.083 0 0 1-.647-1.477c0-.599.203-1.078.647-1.476.405-.4.93-.64 1.495-.64h2.141V28.547c0-.6.202-1.079.647-1.479.403-.398.93-.639 1.495-.639.607 0 1.092.201 1.495.64.403.4.647.918.647 1.478v10.579h4.323c.607 0 1.09.199 1.495.639.403.398.647.917.647 1.476 0 .6-.202 1.079-.647 1.477a2.122 2.112 0 0 1-1.495.64h-4.323V58.13c0 4.231 2.141 6.347 6.425 6.347.605 0 1.09.199 1.495.639.403.398.645.917.645 1.477a1.93 1.93 0 0 1-.645 1.477zm25.536-23.714c.567 0 1.092-.24 1.495-.639.405-.4.647-.919.687-1.518 0-.597-.202-1.077-.605-1.517a3.062 3.048 0 0 0-.89-.559c-1.737-.679-3.635-1.037-5.737-1.037-4.161 0-7.718 1.477-10.708 4.43v-2.314c0-.56-.202-1.079-.605-1.477a1.908 1.9 0 0 0-1.495-.64 2.12 2.12 0 0 0-1.495.64c-.445.398-.647.878-.647 1.477v25.35c0 .56.242 1.078.647 1.478.403.44.888.639 1.495.639.565 0 1.09-.24 1.495-.64.403-.4.605-.877.605-1.476V53.895c0-2.914 1.012-5.388 3.112-7.464 2.061-2.036 4.606-3.075 7.556-3.075 1.495 0 2.909.28 4.162.798.282.12.605.201.928.201zm31.515 10.778a2.08 2.071 0 0 1-1.495.6H67.435c.405 2.035 1.375 3.793 2.91 5.35 1.657 1.636 3.637 2.634 5.858 2.953h.082c.08 0 .162 0 .242.04.066 0 .133.013.193.023.048.008.093.017.13.017h.97c2.383 0 4.605-.679 6.667-2.116a12.202 12.149 0 0 0 2.465-2.275 3.75 3.734 0 0 1 .565-.56 2.074 2.074 0 0 1 1.616-.318c.565.08 1.05.398 1.374.878.323.48.445.997.363 1.556a2.257 2.247 0 0 1-.485 1.04c-.928 1.156-2.1 2.195-3.433 3.112-3.194 2.237-6.669 3.155-10.465 2.835-.102 0-.192-.01-.284-.02-.091-.01-.181-.02-.283-.02h-.12a3.59 3.574 0 0 0-.647-.08c-.041 0-.081 0-.161-.04-2.91-.519-5.455-1.876-7.677-4.072-2.91-2.874-4.365-6.347-4.365-10.42 0-4.072 1.455-7.545 4.365-10.42 2.908-2.873 6.423-4.31 10.545-4.31s7.637 1.437 10.545 4.31c2.91 2.875 4.365 6.348 4.365 10.42 0 .6-.203 1.119-.607 1.517zm18.344 8.903c-2.222-.319-4.202-1.317-5.859-2.954-1.575-1.516-2.545-3.314-2.908-5.39h23.232c.566 0 1.091-.199 1.495-.599a2.03 2.03 0 0 0 .606-1.477c0-4.072-1.455-7.545-4.363-10.42-2.91-2.873-6.425-4.31-10.547-4.31-4.121 0-7.636 1.437-10.545 4.31-2.91 2.875-4.363 6.348-4.363 10.42 0 4.073 1.453 7.546 4.363 10.42 2.182 2.196 4.767 3.553 7.677 4.072a.307.305 0 0 0 .162.04c.201 0 .445.04.646.08h.122c.1 0 .192.01.282.02.091.01.181.02.283.02 3.798.32 7.273-.598 10.465-2.835 1.333-.917 2.505-1.956 3.435-3.113.242-.28.403-.639.483-1.039a2.158 2.149 0 0 0-.363-1.556 1.983 1.975 0 0 0-1.373-.878 2.067 2.058 0 0 0-1.617.319 3.75 3.734 0 0 0-.565.559A12.202 12.149 0 0 1 118.79 62c-2.06 1.437-4.283 2.116-6.667 2.116h-.97a.793.79 0 0 1-.161-.02c-.05-.01-.1-.02-.162-.02-.08-.04-.162-.04-.242-.04zm1.658-20.919c-2.95 0-5.455 1.037-7.517 3.074-1.575 1.556-2.545 3.313-2.908 5.35h20.93c-.405-2.037-1.373-3.794-2.91-5.35-2.142-2.037-4.647-3.074-7.595-3.074zm-34.307 0c-2.948 0-5.453 1.037-7.555 3.074-1.575 1.556-2.545 3.313-2.908 5.35h20.928c-.403-2.037-1.373-3.794-2.908-5.35-2.102-2.037-4.607-3.074-7.557-3.074zM244.767 35.5h.933l.8 1.693h1.017l-.934-1.892c.134-.05.267-.116.384-.182.116-.083.233-.166.316-.282.1-.1.167-.233.217-.365.05-.133.083-.3.083-.482 0-.265-.05-.48-.133-.68a1.208 1.203 0 0 0-.383-.481 1.647 1.64 0 0 0-.567-.282c-.217-.067-.45-.1-.717-.1l-1.966-.017-.034 4.73h.934zm.016-2.173h1.05c.3 0 .517.066.634.199a.721.721 0 0 1 .166.498.617.617 0 0 1-.216.464c-.15.116-.367.183-.667.183h-.967z"
              style="fill:#3dd368;fill-opacity:1;stroke-width:1.66305"/>
        <path d="M242.367 38.056c.383.398.85.697 1.4.913a4.714 4.714 0 0 0 1.766.332c.634 0 1.217-.1 1.767-.316a4.29 4.29 0 0 0 1.417-.896c.4-.382.716-.846.933-1.394.233-.53.35-1.128.35-1.775 0-.648-.1-1.245-.317-1.776a3.841 3.841 0 0 0-.916-1.394 4.433 4.414 0 0 0-1.4-.913 4.738 4.738 0 0 0-1.784-.331c-.633 0-1.216.1-1.766.315a4.29 4.29 0 0 0-1.417.896c-.4.382-.717.846-.933 1.377a5.104 5.104 0 0 0-.35 1.776c0 .647.1 1.244.316 1.792.234.531.55.996.934 1.394zm-.017-4.497c.167-.415.4-.78.7-1.095a3.21 3.21 0 0 1 1.1-.747c.433-.183.9-.266 1.433-.266.534 0 1.017.1 1.434.282a2.98 2.98 0 0 1 1.083.764c.3.315.533.68.683 1.095.167.415.234.863.234 1.328a3.577 3.561 0 0 1-.95 2.439c-.3.315-.667.564-1.1.763a3.679 3.679 0 0 1-1.434.282 3.438 3.423 0 0 1-2.516-1.062 3.189 3.189 0 0 1-.684-1.111 3.975 3.975 0 0 1-.233-1.328c0-.498.083-.93.25-1.344z"
              style="fill:#3dd368;fill-opacity:1;stroke-width:1.66305"/>
        <rect width="250" height="250" y="-75" rx=".228" ry=".228"
              style="clip-rule:evenodd;fill:none;fill-opacity:.346253;fill-rule:evenodd;stroke-width:1.66666;stroke-linejoin:round;stroke-miterlimit:2;paint-order:markers stroke fill"/>
    </g>
</svg>
